# xmcd
#
# Track frame offsets:
#	150
#	21772
#	44602
#	71997
#	94860
#	119372
#	142335
#	163975
#
# Disc length: 2515 seconds
#
# Revision: 7
# Processed by: cddbd v1.5.2PL0 Copyright (c) Steve Scherf et al.
# Submitted via: EasyCDDAExtractor 15.3.0.1
#
DISCID=7d09d108
DTITLE=Victor Manuelle
DYEAR=1996
DGENRE=Latin
TTITLE0=Pensamiento Y Palabra
TTITLE1=Hay Que Poner El Alma
TTITLE2=Ahora Me Toca A Mi
TTITLE3=La Razon De Mi Vida
TTITLE4=Volveras
TTITLE5=Todo Quedo, Quedo
TTITLE6=Como Una Estrella
TTITLE7=Sin Querer Queriendo
EXTD=
EXTT0=
EXTT1=
EXTT2=
EXTT3=
EXTT4=
EXTT5=
EXTT6=
EXTT7=
PLAYORDER=
